<svg width="102px" height="102px" viewBox="0 0 102 102" version="1.1" xmlns="http://www.w3.org/2000/svg" xmlns:xlink="http://www.w3.org/1999/xlink" xmlns:sketch="http://www.bohemiancoding.com/sketch/ns">
                            <circle id="Oval-1" stroke="#F7BF6B" fill="#F4AD43" cx="50" cy="50" r="50"></circle>
                            <path d="M49.876,65.199 L37.67,65.199 C36.864,65.199 36.864,66.449 37.67,66.449 L49.876,66.449 C50.682,66.449 50.682,65.199 49.876,65.199 L49.876,65.199 L49.876,65.199 Z" id="Shape" fill="#FFFFFF"></path>
                            <path d="M39.295,37.221 L47.11,37.221 C47.916,37.221 47.916,35.971 47.11,35.971 L39.295,35.971 C38.489,35.971 38.489,37.221 39.295,37.221 L39.295,37.221 L39.295,37.221 Z" id="Shape" fill="#FFFFFF"></path>
                            <path d="M49.876,60.721 L37.67,60.721 C36.864,60.721 36.864,61.971 37.67,61.971 L49.876,61.971 C50.682,61.971 50.682,60.721 49.876,60.721 L49.876,60.721 L49.876,60.721 Z" id="Shape" fill="#FFFFFF"></path>
                            <path d="M54.98,61.023 L54.06,61.023 C52.609,61.023 52.609,63.273 54.06,63.273 L54.98,63.273 C56.432,63.273 56.432,61.023 54.98,61.023 L54.98,61.023 L54.98,61.023 Z" id="Shape" fill="#FFFFFF"></path>
                            <path d="M58.5,61.023 L57.582,61.023 C56.131,61.023 56.131,63.273 57.582,63.273 L58.5,63.273 C59.951,63.273 59.951,61.023 58.5,61.023 L58.5,61.023 L58.5,61.023 Z" id="Shape" fill="#FFFFFF"></path>
                            <path d="M62.168,61.023 L61.248,61.023 C59.797,61.023 59.797,63.273 61.248,63.273 L62.168,63.273 C63.619,63.273 63.619,61.023 62.168,61.023 L62.168,61.023 L62.168,61.023 Z" id="Shape" fill="#FFFFFF"></path>
                            <path d="M54.906,64.002 L53.988,64.002 C52.537,64.002 52.537,66.252 53.988,66.252 L54.906,66.252 C56.357,66.252 56.357,64.002 54.906,64.002 L54.906,64.002 L54.906,64.002 Z" id="Shape" fill="#FFFFFF"></path>
                            <path d="M58.426,64.002 L57.508,64.002 C56.057,64.002 56.057,66.252 57.508,66.252 L58.426,66.252 C59.877,66.252 59.877,64.002 58.426,64.002 L58.426,64.002 L58.426,64.002 Z" id="Shape" fill="#FFFFFF"></path>
                            <path d="M62.094,64.002 L61.174,64.002 C59.725,64.002 59.725,66.252 61.174,66.252 L62.094,66.252 C63.545,66.252 63.545,64.002 62.094,64.002 L62.094,64.002 L62.094,64.002 Z" id="Shape" fill="#FFFFFF"></path>
                            <path d="M49.876,63.012 L37.67,63.012 C36.864,63.012 36.864,64.262 37.67,64.262 L49.876,64.262 C50.682,64.262 50.682,63.012 49.876,63.012 L49.876,63.012 L49.876,63.012 Z" id="Shape" fill="#FFFFFF"></path>
                            <path d="M54.92,37.221 L62.734,37.221 C63.541,37.221 63.541,35.971 62.734,35.971 L54.92,35.971 C54.113,35.971 54.113,37.221 54.92,37.221 L54.92,37.221 L54.92,37.221 Z" id="Shape" fill="#FFFFFF"></path>
                            <path d="M60.297,40.013 C61.104,40.013 61.104,38.763 60.297,38.763 L55.233,38.763 C54.426,38.763 54.426,40.013 55.233,40.013 L60.297,40.013 L60.297,40.013 Z" id="Shape" fill="#FFFFFF"></path>
                            <path d="M54.641,53.615 C54.805,54.142 55.545,54.308 55.823,53.775 C56.182,53.086 56.542,52.394 56.899,51.705 C57.137,52.361 57.376,53.019 57.614,53.68 C57.716,53.961 57.93,54.172 58.237,54.172 L61.309,54.172 C62.143,54.172 62.143,52.83 61.309,52.83 L59.059,52.83 C58.83,52.83 58.696,52.863 58.616,52.902 C58.622,52.783 58.593,52.578 58.471,52.242 C58.19,51.466 57.909,50.687 57.627,49.911 C57.443,49.403 56.732,49.199 56.443,49.752 C56.099,50.413 55.755,51.074 55.412,51.734 C54.848,49.913 54.281,48.091 53.715,46.271 C53.508,45.607 52.694,45.66 52.467,46.271 C51.863,47.905 51.26,52.539 50.657,54.171 C50.037,51.239 49.416,45.309 48.797,42.377 C48.658,41.721 47.707,41.752 47.549,42.377 C46.786,45.409 46.025,48.44 45.263,51.474 C44.833,50.56 44.404,49.646 43.974,48.732 C43.703,48.155 42.974,48.406 42.791,48.891 C42.356,50.047 41.922,51.205 41.488,52.365 C41.403,52.594 41.34,52.732 41.293,52.83 L39.387,52.83 C38.552,52.83 38.552,54.172 39.387,54.172 L41.753,54.172 C42.064,54.172 42.271,53.961 42.377,53.68 C42.745,52.698 43.113,51.719 43.481,50.737 C43.95,51.737 44.42,52.737 44.89,53.735 C45.14,54.268 45.938,54.11 46.073,53.575 C46.755,50.862 47.437,48.147 48.12,45.432 C48.702,48.181 49.283,53.93 49.864,56.68 C50.013,57.385 50.902,57.248 51.112,56.68 C51.754,54.94 52.397,50.2 53.037,48.462 C53.572,50.18 54.105,51.896 54.641,53.615 L54.641,53.615 L54.641,53.615 Z" id="Shape" fill="#FFFFFF"></path>
                            <path d="M60.902,28.948 L60.902,27 L41.038,27 L41.038,28.948 L31.272,28.948 L31.272,73.961 L69.689,73.961 L69.689,28.948 L60.902,28.948 L60.902,28.948 Z M66.688,70.961 L34.272,70.961 L34.272,31.948 L41.038,31.948 L41.038,33.333 L60.902,33.333 L60.902,31.948 L66.689,31.948 L66.689,70.961 L66.688,70.961 L66.688,70.961 Z" id="Shape" fill="#FFFFFF"></path>
</svg>