<?xml version="1.0" encoding="UTF-8" standalone="no"?>
<svg width="174px" height="180px" viewBox="0 0 174 180" version="1.1" xmlns="http://www.w3.org/2000/svg" xmlns:xlink="http://www.w3.org/1999/xlink" xmlns:sketch="http://www.bohemiancoding.com/sketch/ns">
    <!-- Generator: Sketch 3.2.2 (9983) - http://www.bohemiancoding.com/sketch -->
    <title>badge_ingénieur</title>
    <desc>Created with Sketch.</desc>
    <defs>
        <path id="path-1" d="M167.498169,132.403291 C163.226807,140.337606 94.571713,177.521378 86.4381396,177.521377 C77.5599942,177.521378 8.52432631,140.491792 4.21129225,132.403291 C-0.101741815,124.314789 -0.260094719,51.5891181 4.21129227,43.5464556 C8.68267926,35.5037931 76.2474942,0.478623246 86.4381396,0.478623246 C95.4115567,0.478623246 162.447544,35.1329139 167.498169,43.5464556 C172.548794,51.9599973 171.769531,124.468975 167.498169,132.403291 Z"></path>
        <path id="path-3" d="M167.498169,132.403291 C163.226807,140.337606 94.571713,177.521378 86.4381396,177.521377 C77.5599942,177.521378 8.52432631,140.491792 4.21129225,132.403291 C-0.101741815,124.314789 -0.260094719,51.5891181 4.21129227,43.5464556 C8.68267926,35.5037931 76.2474942,0.478623246 86.4381396,0.478623246 C95.4115567,0.478623246 162.447544,35.1329139 167.498169,43.5464556 C172.548794,51.9599973 171.769531,124.468975 167.498169,132.403291 Z"></path>
        <filter x="-50%" y="-50%" width="200%" height="200%" filterUnits="objectBoundingBox" id="filter-5">
            <feOffset dx="0" dy="4" in="SourceAlpha" result="shadowOffsetOuter1"></feOffset>
            <feGaussianBlur stdDeviation="3" in="shadowOffsetOuter1" result="shadowBlurOuter1"></feGaussianBlur>
            <feColorMatrix values="0 0 0 0 0   0 0 0 0 0   0 0 0 0 0  0 0 0 0.35 0" in="shadowBlurOuter1" type="matrix" result="shadowMatrixOuter1"></feColorMatrix>
            <feMerge>
                <feMergeNode in="shadowMatrixOuter1"></feMergeNode>
                <feMergeNode in="SourceGraphic"></feMergeNode>
            </feMerge>
        </filter>
        <filter x="-50%" y="-50%" width="200%" height="200%" filterUnits="objectBoundingBox" id="filter-6">
            <feOffset dx="0" dy="4" in="SourceAlpha" result="shadowOffsetOuter1"></feOffset>
            <feGaussianBlur stdDeviation="3" in="shadowOffsetOuter1" result="shadowBlurOuter1"></feGaussianBlur>
            <feColorMatrix values="0 0 0 0 0   0 0 0 0 0   0 0 0 0 0  0 0 0 0.35 0" in="shadowBlurOuter1" type="matrix" result="shadowMatrixOuter1"></feColorMatrix>
            <feMerge>
                <feMergeNode in="shadowMatrixOuter1"></feMergeNode>
                <feMergeNode in="SourceGraphic"></feMergeNode>
            </feMerge>
        </filter>
    </defs>
    <g id="Page-1" stroke="none" stroke-width="1" fill="none" fill-rule="evenodd" sketch:type="MSPage">
        <g id="badge_ingénieur" sketch:type="MSLayerGroup" transform="translate(-54.000000, -15.000000)">
            <path d="M223.498169,148.403291 C219.226807,156.337606 150.571713,193.521378 142.43814,193.521377 C133.559994,193.521378 64.5243263,156.491792 60.2112922,148.403291 C55.8982582,140.314789 55.7399053,67.5891181 60.2112923,59.5464556 C64.6826793,51.5037931 132.247494,16.4786232 142.43814,16.4786232 C151.411557,16.4786232 218.447544,51.1329139 223.498169,59.5464556 C228.548794,67.9599973 227.769531,140.468975 223.498169,148.403291 Z" id="Rectangle-1" stroke="#524F4F" fill="#706F6D" sketch:type="MSShapeGroup"></path>
            <g id="Triangle-1" transform="translate(55.000000, 16.000000)">
                <mask id="mask-2" sketch:name="Mask" fill="white">
                    <use xlink:href="#path-1"></use>
                </mask>
                <use id="Mask" stroke="#524F4F" sketch:type="MSShapeGroup" xlink:href="#path-1"></use>
                <path d="M-24.8035714,72.7659574 L-40.6964286,72.7659574 L-20.8303571,33.1382979 L-35.9285714,33.1382979 L-11.2946429,-16 L13.3392857,33.1382979 L-0.169642857,33.1382979 L-0.169642857,33.1382979 L19.6964286,72.7659574 L3.80357143,72.7659574 L34,133 L-55,133 L-24.8035714,72.7659574 Z" fill="#595656" sketch:type="MSShapeGroup" mask="url(#mask-2)"></path>
            </g>
            <g id="Triangle-1" transform="translate(141.500000, 105.000000) scale(-1, 1) translate(-141.500000, -105.000000) translate(56.000000, 16.000000)">
                <mask id="mask-4" sketch:name="Mask" fill="white">
                    <use xlink:href="#path-3"></use>
                </mask>
                <use id="Mask" stroke="#524F4F" sketch:type="MSShapeGroup" xlink:href="#path-3"></use>
                <path d="M-24.8035714,72.7659574 L-40.6964286,72.7659574 L-20.8303571,33.1382979 L-35.9285714,33.1382979 L-11.2946429,-16 L13.3392857,33.1382979 L-0.169642857,33.1382979 L-0.169642857,33.1382979 L19.6964286,72.7659574 L3.80357143,72.7659574 L34,133 L-55,133 L-24.8035714,72.7659574 Z" fill="#595656" sketch:type="MSShapeGroup" mask="url(#mask-4)"></path>
            </g>
            <path d="M96.3078963,110.191489 L86.1607143,110.191489 L98.8839286,84.6595745 L89.2142857,84.6595745 L104.991071,53 L120.767857,84.6595745 L112.116071,84.6595745 L112.116071,84.6595745 L124.839286,110.191489 L121.502685,110.191489 L155.286133,149.000001 L76.9023438,149.000001 L96.3078963,110.191489 Z" id="Triangle-1" fill="#595656" sketch:type="MSShapeGroup"></path>
            <path d="M163.776995,110.191489 L159.694894,110.191489 L172.418108,84.6595745 L162.748465,84.6595745 L178.525251,53 L194.302037,84.6595745 L185.650251,84.6595745 L185.650251,84.6595745 L198.373465,110.191489 L188.286551,110.191489 L207.819336,149.000001 L131.567383,149.000001 L163.776995,110.191489 Z" id="Triangle-1" fill="#595656" sketch:type="MSShapeGroup"></path>
            <rect id="Rectangle-1" fill="#FFFFFF" sketch:type="MSShapeGroup" x="135" y="128" width="14" height="27"></rect>
            <polygon id="Triangle-13" fill="#756E05" filter="url(#filter-5)" sketch:type="MSShapeGroup" points="141.958433 40.5000004 178.225523 130.5 141.958433 130.5 "></polygon>
            <polygon id="Triangle-13" fill="#BCB237" filter="url(#filter-6)" sketch:type="MSShapeGroup" transform="translate(123.824888, 85.500000) scale(-1, 1) translate(-123.824888, -85.500000) " points="105.691344 40.5000004 141.958433 130.5 105.691344 130.5 "></polygon>
        </g>
    </g>
</svg>