<svg width="102px" height="102px" viewBox="0 0 102 102" version="1.1" xmlns="http://www.w3.org/2000/svg" xmlns:xlink="http://www.w3.org/1999/xlink" xmlns:sketch="http://www.bohemiancoding.com/sketch/ns">
                        <circle id="Oval-3" stroke="#F7BF6B" fill="#F4AD43" cx="50" cy="50" r="50"></circle>
                        <path d="M67.0460022,38.7060401 L51.950331,38.7060401 L56.0173279,33.1041754 C56.502531,32.435276 56.3662982,31.4900313 55.7120235,30.9935588 C55.0581058,30.4969646 54.13434,30.6362933 53.6487799,31.305436 L49.7308657,36.7014107 L43.8566716,28.6093957 C43.3708735,27.9403746 42.4471077,27.8008026 41.7925951,28.2975184 C41.1386774,28.794356 41.0019686,29.739114 41.4876476,30.4080133 L47.5117575,38.7059185 L32.9538788,38.7059185 C30.5439255,38.7060401 28.5834812,40.7110346 28.5834812,43.1761179 L28.5834812,65.5265069 C28.5834812,67.9586138 30.4930018,69.9412183 32.8586942,69.993786 L32.8586942,72.3708915 C32.8586942,72.7178138 33.1347294,73 33.4743002,73 L37.0947627,73 C37.4340955,73 37.7102496,72.7178138 37.7102496,72.3708915 L37.7102496,69.9965847 L62.2899883,69.9965847 L62.2899883,72.3708915 C62.2899883,72.7178138 62.5661424,73 62.9054753,73 L66.5261757,73 C66.8657465,73 67.1417817,72.7178138 67.1417817,72.3708915 L67.1417817,69.993786 C69.5072362,69.9414617 71.4167568,67.9586138 71.4167568,65.5265069 L71.4167568,43.1761179 C71.4165188,40.7110346 69.4560745,38.7060401 67.0460022,38.7060401 L67.0460022,38.7060401 L67.0460022,38.7060401 Z M67.9200342,65.5265069 C67.9200342,66.0194506 67.5281119,66.4206442 67.0457643,66.4206442 L32.9538788,66.4206442 C32.4717691,66.4206442 32.0798468,66.0194506 32.0798468,65.5265069 L32.0798468,43.1761179 C32.0798468,42.6831743 32.4717691,42.2819807 32.9538788,42.2819807 L67.0458833,42.2819807 C67.5282309,42.2819807 67.9201532,42.6830526 67.9201532,43.1761179 L67.9200342,65.5265069 L67.9200342,65.5265069 Z" id="Shape" fill="#FFFFFF"></path>
                        <path d="M55.4579998,44.5826684 L36.0852118,44.5826684 C35.3574071,44.5826684 34.767144,45.1861015 34.767144,45.9306885 L34.767144,62.7713279 C34.767144,63.5156716 35.3574071,64.1191047 36.0852118,64.1191047 L55.4579998,64.1191047 C56.1859235,64.1191047 56.7760676,63.5156716 56.7760676,62.7713279 L56.7760676,45.9306885 C56.7760676,45.1862232 56.1859235,44.5826684 55.4579998,44.5826684 L55.4579998,44.5826684 L55.4579998,44.5826684 Z" id="Shape" fill="#FFFFFF"></path>
                        <path d="M64.224019,44.9349448 L60.0449422,44.9349448 C59.3171375,44.9349448 58.7268745,45.5384996 58.7268745,46.282965 L58.7268745,51.4241325 C58.7268745,52.1687195 59.3171375,52.7721527 60.0449422,52.7721527 L64.224019,52.7721527 C64.9518236,52.7721527 65.5418487,52.1687195 65.5418487,51.4241325 L65.5418487,46.282965 C65.5418487,45.5384996 64.9518236,44.9349448 64.224019,44.9349448 L64.224019,44.9349448 L64.224019,44.9349448 Z" id="Shape" fill="#FFFFFF"></path>
                        <ellipse id="Oval" fill="#FFFFFF" cx="62.1343616" cy="56.5743046" rx="2.1735387" ry="2.2229313"></ellipse>
                        <ellipse id="Oval" fill="#FFFFFF" cx="62.1343616" cy="62.1395423" rx="2.17389564" ry="2.22329635"></ellipse>
</svg>