<?xml version="1.0" encoding="UTF-8" standalone="no"?>
<svg width="174px" height="181px" viewBox="0 0 174 181" version="1.1" xmlns="http://www.w3.org/2000/svg" xmlns:xlink="http://www.w3.org/1999/xlink" xmlns:sketch="http://www.bohemiancoding.com/sketch/ns">
    <!-- Generator: Sketch 3.2.2 (9983) - http://www.bohemiancoding.com/sketch -->
    <title>Ingénieur</title>
    <desc>Created with Sketch.</desc>
    <defs>
        <filter x="-50%" y="-50%" width="200%" height="200%" filterUnits="objectBoundingBox" id="filter-1">
            <feOffset dx="0" dy="1" in="SourceAlpha" result="shadowOffsetInner1"></feOffset>
            <feGaussianBlur stdDeviation="0.5" in="shadowOffsetInner1" result="shadowBlurInner1"></feGaussianBlur>
            <feComposite in="shadowBlurInner1" in2="SourceAlpha" operator="arithmetic" k2="-1" k3="1" result="shadowInnerInner1"></feComposite>
            <feColorMatrix values="0 0 0 0 0   0 0 0 0 0   0 0 0 0 0  0 0 0 0.35 0" in="shadowInnerInner1" type="matrix" result="shadowMatrixInner1"></feColorMatrix>
            <feMerge>
                <feMergeNode in="SourceGraphic"></feMergeNode>
                <feMergeNode in="shadowMatrixInner1"></feMergeNode>
            </feMerge>
        </filter>
        <filter x="-50%" y="-50%" width="200%" height="200%" filterUnits="objectBoundingBox" id="filter-2">
            <feOffset dx="0" dy="1" in="SourceAlpha" result="shadowOffsetInner1"></feOffset>
            <feGaussianBlur stdDeviation="0.5" in="shadowOffsetInner1" result="shadowBlurInner1"></feGaussianBlur>
            <feComposite in="shadowBlurInner1" in2="SourceAlpha" operator="arithmetic" k2="-1" k3="1" result="shadowInnerInner1"></feComposite>
            <feColorMatrix values="0 0 0 0 0   0 0 0 0 0   0 0 0 0 0  0 0 0 0.35 0" in="shadowInnerInner1" type="matrix" result="shadowMatrixInner1"></feColorMatrix>
            <feMerge>
                <feMergeNode in="SourceGraphic"></feMergeNode>
                <feMergeNode in="shadowMatrixInner1"></feMergeNode>
            </feMerge>
        </filter>
        <filter x="-50%" y="-50%" width="200%" height="200%" filterUnits="objectBoundingBox" id="filter-3">
            <feOffset dx="0" dy="1" in="SourceAlpha" result="shadowOffsetInner1"></feOffset>
            <feGaussianBlur stdDeviation="0.5" in="shadowOffsetInner1" result="shadowBlurInner1"></feGaussianBlur>
            <feComposite in="shadowBlurInner1" in2="SourceAlpha" operator="arithmetic" k2="-1" k3="1" result="shadowInnerInner1"></feComposite>
            <feColorMatrix values="0 0 0 0 0   0 0 0 0 0   0 0 0 0 0  0 0 0 0.35 0" in="shadowInnerInner1" type="matrix" result="shadowMatrixInner1"></feColorMatrix>
            <feMerge>
                <feMergeNode in="SourceGraphic"></feMergeNode>
                <feMergeNode in="shadowMatrixInner1"></feMergeNode>
            </feMerge>
        </filter>
        <filter x="-50%" y="-50%" width="200%" height="200%" filterUnits="objectBoundingBox" id="filter-4">
            <feOffset dx="0" dy="1" in="SourceAlpha" result="shadowOffsetInner1"></feOffset>
            <feGaussianBlur stdDeviation="0.5" in="shadowOffsetInner1" result="shadowBlurInner1"></feGaussianBlur>
            <feComposite in="shadowBlurInner1" in2="SourceAlpha" operator="arithmetic" k2="-1" k3="1" result="shadowInnerInner1"></feComposite>
            <feColorMatrix values="0 0 0 0 0   0 0 0 0 0   0 0 0 0 0  0 0 0 0.35 0" in="shadowInnerInner1" type="matrix" result="shadowMatrixInner1"></feColorMatrix>
            <feMerge>
                <feMergeNode in="SourceGraphic"></feMergeNode>
                <feMergeNode in="shadowMatrixInner1"></feMergeNode>
            </feMerge>
        </filter>
    </defs>
    <g id="Page-1" stroke="none" stroke-width="1" fill="none" fill-rule="evenodd" sketch:type="MSPage">
        <g id="Ingénieur" sketch:type="MSLayerGroup" transform="translate(2.000000, 2.000000)">
            <path d="M166.581302,131.924668 C162.30994,139.858983 93.6548462,177.042755 85.5212732,177.042754 C76.6431272,177.042755 7.6074595,140.013169 3.2944254,131.924668 C-1.0186086,123.836166 -1.1769615,51.1104949 3.2944255,43.0678324 C7.7658125,35.0251699 75.3306272,0 85.5212732,0 C94.4946902,0 161.530677,34.6542907 166.581302,43.0678324 C171.631927,51.4813741 170.852664,123.990352 166.581302,131.924668 L166.581302,131.924668 Z" id="Rectangle-1" stroke="#AF7337" stroke-width="3.5" fill="#C0B0B0" sketch:type="MSShapeGroup"></path>
            <path d="M135.942438,102.148299 C134.642095,103.109985 134.302007,103.998169 134.128413,105.28101 C128.703374,114.638184 93.6320943,167.118328 88.6360671,175.425293 C61.3748376,160.546387 53.1741535,154.330566 52.5960289,152.070801 C48.2947592,141.342285 48.5274251,75.0849609 53.1741536,65.012207 C63.594564,54.0959473 121.977132,23.2294922 132.445149,21.1860352 C138.713704,22.8916016 143.728352,24.7897949 168.358479,37.4116211 C164.226695,45.1140964 136.8794,100.623901 135.942438,102.148299 Z" id="Rectangle-1" fill-opacity="0.17" fill="#000000" sketch:type="MSShapeGroup" transform="translate(108.940592, 98.305664) rotate(180.000000) translate(-108.940592, -98.305664) "></path>
            <path d="M85.3022883,129.626952 C84.5332569,131.122296 83.6353215,132.540479 82.623162,133.866819 L82.623162,133.866819 L86.2632892,137.031133 L81.0244904,143.057682 L76.9191299,139.488946 C75.9141614,140.233075 74.8583207,140.912409 73.7577813,141.520776 L75.8591823,146.027245 L68.6220832,149.40196 L66.2717077,144.361563 L66.2717077,144.361563 C64.6803085,144.717678 63.0384431,144.940145 61.358509,145.016566 L61.358509,145.016566 L60.651117,150.777812 L52.7253826,149.804655 L53.405557,144.265079 C51.5665345,143.824178 49.7971317,143.20425 48.1168062,142.42475 L48.1168167,142.424755 L44.6808464,148.62341 L38.6945079,145.305128 L42.2945601,138.810462 C40.5621714,137.41998 38.9964125,135.83042 37.6319904,134.07649 L31.696825,137.642697 L28.1716446,131.775811 L34.1105436,128.207361 L34.1105436,128.207361 C33.1224245,125.990425 32.4102021,123.623449 32.0175012,121.150056 L32.0175012,121.150056 L26.4464725,121.344601 L26.1677911,113.36421 L31.8787053,113.16478 C32.1538322,110.927489 32.6893161,108.77076 33.4539182,106.725832 L28.1933855,103.042367 L32.7735397,96.5012292 L37.3085111,99.6766503 L37.3085111,99.6766503 C38.6987267,97.8188496 40.3112874,96.137079 42.1067336,94.6707983 L42.1067336,94.6707983 L38.7523404,89.6977057 L45.372417,85.2324076 L48.948827,90.5346535 C50.9861944,89.6682435 53.1456388,89.0331514 55.3941913,88.6623463 L55.3941913,82.5188524 L63.3794466,82.5188524 L63.3794466,88.4764447 L63.3794466,88.4764447 C65.5092153,88.7255517 67.5669406,89.2104543 69.5258183,89.9043486 L69.5258183,89.9043486 L71.635096,84.4094923 L78.0249914,86.8623434 L75.679546,92.9724375 C77.4807129,94.1632933 79.1381333,95.5540413 80.620194,97.1130683 L85.6588092,93.1764707 L89.872707,98.5700138 L84.7073902,102.605602 L84.7073902,102.605602 C85.8265146,104.56441 86.7189819,106.669412 87.3490634,108.884879 L92.9339561,108.396264 L93.629917,116.351133 L88.4282001,116.806224 L88.4282001,116.806224 C88.4193999,118.607377 88.2428236,120.368864 87.9132983,122.075858 L93.7348905,124.310558 L90.873231,131.765436 L85.3022883,129.626952 Z" id="Oval-1" fill-opacity="0.917827219" fill="#B9722D" filter="url(#filter-1)" sketch:type="MSShapeGroup"></path>
            <path d="M129.890385,59.7935628 C129.274893,60.9388061 128.561225,62.0270164 127.760135,63.0478179 L127.760135,63.0478179 L130.647963,65.5581689 L126.306733,70.5521828 L122.948824,67.633197 C122.135591,68.2122291 121.28232,68.7419234 120.393756,69.2177007 L122.059466,72.789827 L116.062306,75.5863484 L114.159797,71.5064052 L114.159797,71.5064052 C112.837957,71.7919967 111.474089,71.9702215 110.078539,72.0310951 L110.078539,72.0310951 L109.511223,76.6515155 L102.943413,75.8450898 L103.485786,71.4278131 C101.926917,71.0665598 100.428467,70.5555097 99.0077013,69.9113229 L99.0077013,69.9113229 L96.1779448,75.0163388 L91.3914059,72.363117 L94.3146388,67.0894652 C92.8511076,65.9594215 91.5305543,64.6641581 90.3833423,63.2329724 L85.454289,66.1946464 L82.6356357,61.5036195 L87.5009771,58.5802274 L87.5009771,58.5802274 C86.7002512,56.8444592 86.1186995,54.9937823 85.7902381,53.0609223 L85.7902381,53.0609223 L81.2542612,53.2193221 L81.0233266,46.6062198 L85.671775,46.4438924 C85.89852,44.7390992 86.3213143,43.0935011 86.9176448,41.5288206 L82.6839292,38.564341 L86.4793609,33.1439028 L90.1859322,35.7392719 L90.1859322,35.7392719 C91.316618,34.2877847 92.623534,32.971392 94.076022,31.8196758 L94.076022,31.8196758 L91.407926,27.8640608 L96.8937781,24.1638068 L99.798193,28.469779 C101.487544,27.7762678 103.278219,27.2679555 105.142838,26.9712591 L105.142838,22.0590624 L111.759972,22.0590624 L111.759972,26.8226165 L111.759972,26.8226165 C113.560954,27.0258719 115.299768,27.4254579 116.952811,27.9986 L116.952811,27.9986 L118.694119,23.4623363 L123.803333,25.4235797 L121.899362,30.3835937 C123.43309,31.3562748 124.841844,32.4973993 126.09736,33.7796961 L130.283483,30.5091383 L133.652819,34.8216916 L129.432968,38.1186006 L129.432968,38.1186006 C130.341971,39.6535289 131.070573,41.3007442 131.590901,43.0333534 L136.151696,42.6343356 L136.728417,49.2262887 L132.516163,49.5948132 L132.516163,49.5948132 C132.502018,50.9481521 132.3651,52.2731225 132.115642,53.5598498 L136.821639,55.3663127 L134.45027,61.5439388 L129.890385,59.7935628 Z" id="Oval-1" fill-opacity="0.917827219" fill="#B9722D" filter="url(#filter-2)" sketch:type="MSShapeGroup"></path>
            <path d="M80.0862775,71.9978364 C79.6076425,72.8602839 79.0554838,73.6809371 78.4376185,74.4524471 L78.4376185,74.4524471 L80.6707396,76.3936696 L77.2033265,80.3824721 L74.5456093,78.0721538 C73.9073261,78.5138628 73.2382524,78.918531 72.5419753,79.282786 L73.8295807,82.0440646 L69.0395491,84.277693 L67.5454313,81.0735471 L67.5454313,81.0735471 C66.4879094,81.2962708 65.3967003,81.4351604 64.2801109,81.4824063 L64.2801109,81.4824063 L63.8376145,85.08625 L58.5917946,84.4421443 L59.0130137,81.0115901 C57.7479869,80.7255945 56.532805,80.3192532 55.3819364,79.8061685 L55.3819364,79.8061685 L53.1322364,83.8647346 L49.4072146,81.7999213 L51.7085505,77.6482015 C50.5233109,76.7584359 49.4551627,75.7366071 48.5293205,74.6064203 L44.5872322,76.9750659 L42.3936753,73.3243742 L46.2480182,71.0084513 L46.2480182,71.0084513 C45.6192747,69.6791332 45.1600321,68.2632844 44.8960914,66.7851617 L44.8960914,66.7851617 L41.3175024,66.9101288 L41.133051,61.6281332 L44.7994455,61.5000999 C44.9793823,60.2220899 45.3046821,58.9872054 45.7592135,57.8106125 L42.4492975,55.4929844 L45.4807724,51.1635896 L48.4130555,53.2167964 L48.4130555,53.2167964 C49.3037251,52.1063658 50.3305951,51.0979269 51.4703182,50.2134295 L51.4703182,50.2134295 L49.4027258,47.1480978 L53.7843677,44.192643 L56.0707843,47.582395 C57.4206952,47.0422677 58.8516274,46.6464023 60.3416804,46.4153884 L60.3416804,42.592576 L65.6268955,42.592576 L65.6268955,46.2997104 L65.6268955,46.2997104 C67.0858588,46.4601426 68.4937427,46.7777483 69.8308781,47.2340357 L69.8308781,47.2340357 L71.2176543,43.6213602 L75.193791,45.1476561 L73.6949746,49.0522062 C74.9437765,49.820626 76.0893173,50.7250893 77.1077783,51.7432032 L80.45645,49.1269341 L83.0785639,52.4830868 L79.7421388,55.0897878 L79.7421388,55.0897878 C80.457161,56.2660534 81.0324609,57.5270627 81.4467802,58.8528299 L85.0531246,58.5373156 L85.5137614,63.8024189 L82.2043132,64.0919581 C82.1893925,65.0946646 82.0855876,66.0771675 81.899972,67.0328168 L85.5917298,68.4499498 L83.6976781,73.3841232 L80.0862775,71.9978364 Z" id="Oval-1" fill-opacity="0.917827219" fill="#B9722D" filter="url(#filter-3)" sketch:type="MSShapeGroup"></path>
            <path d="M99.726883,89.7253632 C99.4230125,90.3162249 99.0682075,90.8765971 98.6682688,91.4006795 L98.6682688,91.4006795 L100.106607,92.6510081 L98.036579,95.0323032 L96.4144109,93.622174 C96.0173135,93.9162044 95.6001149,94.1846327 95.1652542,94.4250193 L95.9955894,96.205679 L93.1359645,97.539144 L92.2072509,95.5475112 L92.2072509,95.5475112 C91.5784348,95.6882242 90.9296777,95.7761285 90.2658784,95.8063254 L90.2658784,95.8063254 L89.9863636,98.0827903 L86.8546354,97.6982624 L87.1233955,95.5093869 C86.3967349,95.3351721 85.6975835,95.0902171 85.0336295,94.7822102 L85.0336337,94.7822122 L83.6759645,97.2315122 L81.3105578,95.9203458 L82.7330613,93.3540815 C82.0485354,92.8046547 81.4298506,92.1765654 80.8907208,91.4835275 L78.5455343,92.8926577 L77.1526152,90.574451 L79.499277,89.1644343 L79.499277,89.1644343 C79.1088374,88.2884473 78.827414,87.3531741 78.6722444,86.3758524 L78.6722444,86.3758524 L76.4709408,86.4527236 L76.3608243,83.2993987 L78.6174015,83.2205973 C78.7261135,82.336567 78.9377015,81.4843697 79.2398219,80.6763489 L77.1612058,79.2208863 L78.9709811,76.6362593 L80.7629031,77.8909766 L80.7629031,77.8909766 C81.3122247,77.1568961 81.9494025,76.4923711 82.6588446,75.9129935 L82.6588446,75.9129935 L81.3334093,73.9479549 L83.9492276,72.1835632 L85.3623893,74.2786615 C86.1674228,73.9363133 87.020693,73.6853668 87.9091728,73.538849 L87.9091728,71.1113448 L91.0644198,71.1113448 L91.0644198,73.4653929 L91.0644198,73.4653929 C91.9059641,73.5638236 92.7190416,73.7554252 93.4930611,74.0296065 L93.4930611,74.0296065 L94.3265087,71.8584012 L96.8513746,72.8276064 L95.924609,75.2419132 C96.6363115,75.712461 97.2912149,76.261993 97.8768277,76.8780178 L99.8677566,75.3225337 L101.532811,77.4537067 L99.4918185,79.0483052 L99.4918185,79.0483052 C99.9340227,79.8222972 100.286667,80.6540554 100.535634,81.5294621 L102.742416,81.3363937 L103.017413,84.479634 L100.962039,84.659456 L100.962037,84.6594561 C100.95856,85.3711529 100.888789,86.0671766 100.758582,86.7416684 L103.058892,87.6246746 L101.928153,90.5703514 L99.726883,89.7253632 Z" id="Oval-1" fill-opacity="0.917827219" fill="#B9722D" filter="url(#filter-4)" sketch:type="MSShapeGroup"></path>
            <ellipse id="Oval-1" fill="#F7F5F5" sketch:type="MSShapeGroup" cx="108.053203" cy="50.0175326" rx="8.87736331" ry="8.56570738"></ellipse>
            <ellipse id="Oval-1" fill="#F7F5F5" sketch:type="MSShapeGroup" cx="59.9513408" cy="116.648332" rx="10.712798" ry="10.712798"></ellipse>
            <ellipse id="Oval-1" fill="#F7F5F5" sketch:type="MSShapeGroup" cx="89.7198225" cy="84.4703431" rx="4.23299223" ry="4.23299223"></ellipse>
            <ellipse id="Oval-1" fill="#F7F5F5" sketch:type="MSShapeGroup" cx="62.9178094" cy="62.9476642" rx="7.09049868" ry="6.66607919"></ellipse>
        </g>
    </g>
</svg>