<svg width="102px" height="102px" viewBox="0 0 102 102" version="1.1" xmlns="http://www.w3.org/2000/svg" xmlns:xlink="http://www.w3.org/1999/xlink" xmlns:sketch="http://www.bohemiancoding.com/sketch/ns">
    <circle id="Oval-1" stroke="#F7BF6B" fill="#F4AD43" cx="50" cy="50" r="50"></circle>
    <path d="M52.26632,25.4320989 C43.57904,25.4320989 35.5688,31.9584176 33.90392,39.1505385 C33.5276,40.7483516 32.38072,47.0235934 32.38072,47.0235934 L29.11424,55.0048132 C29.03696,55.1858352 29,55.2525275 29,55.4682967 C29,56.3151209 29.6944,56.8744396 30.54616,56.8744396 L32.56104,56.8744396 C32.56104,56.8744396 30.582,67.9156593 38.61016,69.4703187 L44.0892,70.5104945 L44.0892,75.4395604 C44.36752,75.3857582 44.65032,75.3285934 44.94376,75.2647033 C47.60768,74.6835275 55.48128,72.7046154 62.54456,65.6363516 L62.54456,59.6654286 C66.632,56.1565165 70.94456,50.7101648 70.94456,44.5963297 C70.944,34.0101868 62.83408,25.4320989 52.26632,25.4320989 L52.26632,25.4320989 L52.26632,25.4320989 Z M64.77224,44.0745604 C64.42112,46.3577912 62.34184,47.978022 60.03352,47.978022 L54.03984,47.978022 L54.03984,43.8571099 L56.49712,43.8571099 C56.63712,43.8571099 56.7564,43.7708022 56.81072,43.6514286 C56.86504,43.521967 56.8432,43.3812967 56.7564,43.2725714 L52.91872,39.1185934 C52.85376,39.0541429 52.75688,39.010989 52.65944,39.010989 C52.562,39.010989 52.47576,39.0541429 52.4108,39.1191538 L48.62744,43.2731319 C48.5412,43.3812967 48.51936,43.521967 48.57312,43.651989 C48.62688,43.782011 48.74672,43.8576703 48.88672,43.8576703 L51.344,43.8576703 L51.344,47.978022 L45.75688,47.978022 C42.95128,47.978022 40.44864,45.9363407 40.1552,43.1436703 C39.8024,39.784956 42.59344,36.9704286 45.88176,37.1727473 C46.87688,33.9939341 49.8684,31.7252747 53.24912,31.7252747 C57.26544,31.7252747 60.5756,34.8385165 60.93624,38.7660769 C63.37,39.1583846 65.17544,41.4550659 64.77224,44.0745604 L64.77224,44.0745604 L64.77224,44.0745604 Z" id="Shape" fill="#FFFFFF"></path>
</svg>