<?xml version="1.0" encoding="UTF-8" standalone="no"?>
<svg width="174px" height="182px" viewBox="0 0 174 182" version="1.1" xmlns="http://www.w3.org/2000/svg" xmlns:xlink="http://www.w3.org/1999/xlink" xmlns:sketch="http://www.bohemiancoding.com/sketch/ns">
    <!-- Generator: Sketch 3.2.2 (9983) - http://www.bohemiancoding.com/sketch -->
    <title>Speedy Gonzales</title>
    <desc>Created with Sketch.</desc>
    <defs>
        <filter x="-50%" y="-50%" width="200%" height="200%" filterUnits="objectBoundingBox" id="filter-1">
            <feOffset dx="0" dy="1" in="SourceAlpha" result="shadowOffsetOuter1"></feOffset>
            <feGaussianBlur stdDeviation="1.5" in="shadowOffsetOuter1" result="shadowBlurOuter1"></feGaussianBlur>
            <feColorMatrix values="0 0 0 0 0   0 0 0 0 0   0 0 0 0 0  0 0 0 0.35 0" in="shadowBlurOuter1" type="matrix" result="shadowMatrixOuter1"></feColorMatrix>
            <feMerge>
                <feMergeNode in="shadowMatrixOuter1"></feMergeNode>
                <feMergeNode in="SourceGraphic"></feMergeNode>
            </feMerge>
        </filter>
    </defs>
    <g id="Page-1" stroke="none" stroke-width="1" fill="none" fill-rule="evenodd" sketch:type="MSPage">
        <g id="Speedy-Gonzales" sketch:type="MSLayerGroup" transform="translate(1.000000, 2.000000)">
            <path d="M167.498169,132.403291 C163.226807,140.337606 94.571713,177.521378 86.43814,177.521377 C77.559994,177.521378 8.5243263,140.491792 4.2112922,132.403291 C-0.1017418,124.314789 -0.2600947,51.5891181 4.2112923,43.5464556 C8.6826793,35.5037931 76.247494,0.4786232 86.43814,0.4786232 C95.411557,0.4786232 162.447544,35.1329139 167.498169,43.5464556 C172.548794,51.9599973 171.769531,124.468975 167.498169,132.403291 L167.498169,132.403291 Z" id="Rectangle-1" stroke="#DAA520" stroke-width="3.5" fill="#B7051B" sketch:type="MSShapeGroup"></path>
            <ellipse id="Oval-1" fill="#DAA520" sketch:type="MSShapeGroup" cx="86" cy="89.4008775" rx="57.2789125" ry="57.2789125"></ellipse>
            <ellipse id="Oval-1" fill="#B7051B" sketch:type="MSShapeGroup" cx="86.4954447" cy="88.8605105" rx="47.5523048" ry="47.5523048"></ellipse>
            <path d="M89.6113281,177.521377 C62.3376465,162.820938 49.9861685,154.126738 49.64534,152.339248 C44.7193146,142.18251 44.9986115,73.5721583 49.64534,63.4994043 C56.5191195,54.849502 120.529645,18.5504297 130.720291,18.5504297 C136.953686,19.2823633 146.836182,24.3073877 171,36.7496485 C166.868215,44.4521238 94.6073553,169.214412 89.6113281,177.521377 Z" id="Rectangle-1" fill-opacity="0.2" fill="#000000" sketch:type="MSShapeGroup" transform="translate(108.527397, 98.035903) rotate(180.000000) translate(-108.527397, -98.035903) "></path>
            <ellipse id="Oval-1" stroke="#DAA520" stroke-width="10" sketch:type="MSShapeGroup" cx="86.4954447" cy="89.4008775" rx="52.0106319" ry="52.0106319"></ellipse>
            <path d="M98.5161935,84.2922516 L131.016218,32.121965 L57.7767115,95.1718585 L74.4746958,95.1961909 L41.9746711,147.366478 L115.214178,84.316584 L98.5161935,84.2922516 Z" id="Triangle-1" fill="#DAA520" filter="url(#filter-1)" sketch:type="MSShapeGroup"></path>
        </g>
    </g>
</svg>