<svg width="193px" height="215px" viewBox="0 0 193 215" version="1.1" xmlns="http://www.w3.org/2000/svg" xmlns:xlink="http://www.w3.org/1999/xlink" xmlns:sketch="http://www.bohemiancoding.com/sketch/ns">
    <desc>Created with Sketch.</desc>
    <defs></defs>
    <g id="Page-1" stroke="none" stroke-width="1" fill="none" fill-rule="evenodd" sketch:type="MSPage">
        <g id="difficile" sketch:type="MSLayerGroup" transform="translate(1.000000, 0.000000)">
            <g id="Page-1" sketch:type="MSShapeGroup">
                <g id="difficile">
                    <ellipse id="Oval-1" fill="#FBFAFA" cx="91.0616595" cy="103.245049" rx="33.7516157" ry="33.9227632"></ellipse>
                    <path d="M91.8646288,137.167812 C110.505132,137.167812 125.616245,121.980074 125.616245,103.245049 C125.616245,84.5100242 110.505132,69.3222858 91.8646288,69.3222858 L91.8646288,101.452666 L91.8646288,137.167812 L91.8646288,137.167812 Z" id="Oval-1" fill-opacity="0.08" fill="#000000"></path>
                    <path d="M164.445653,177.685576 C180.940345,160.953405 161.456801,114.061141 120.927941,72.9487726 C80.3990806,31.8364047 34.1723578,12.0723505 17.6776658,28.8045219 C1.18297388,45.5366933 20.6665171,92.4289571 61.1953777,133.541326 C101.724239,174.653693 147.950961,194.417748 164.445653,177.685576 L164.445653,177.685576 L164.445653,177.685576 Z" id="Oval-5" stroke="#FBFBFB" stroke-width="1.3"></path>
                    <path d="M62.4558385,205.134812 C84.8792062,211.701855 115.8642,171.407894 131.662758,115.135732 C147.461317,58.8635696 142.090849,7.92232863 119.667481,1.35528567 C97.2441128,-5.21175729 66.2591188,35.0822034 50.4605601,91.3543659 C34.6620015,147.626528 40.0324705,198.567769 62.4558385,205.134812 L62.4558385,205.134812 L62.4558385,205.134812 Z" id="Oval-5" stroke="#FBFBFB" stroke-width="1.3"></path>
                    <path d="M180.821999,48.6531436 C168.807697,28.2311856 119.24061,36.1175463 70.1108108,66.2678231 C20.9810119,96.4181001 -9.1070433,137.414997 2.90725862,157.836955 C14.9215605,178.258912 64.4886479,170.372552 113.618447,140.222275 C162.748246,110.071998 192.836301,69.0751016 180.821999,48.6531436 L180.821999,48.6531436 L180.821999,48.6531436 Z" id="Oval-5" stroke="#FBFBFB" stroke-width="1.3"></path>
                    <ellipse id="Oval-1" fill="#FBFAFA" cx="32.1204752" cy="22.8543307" rx="8.96713827" ry="9.01260879"></ellipse>
                    <ellipse id="Oval-1" fill="#FBFAFA" cx="66.2771819" cy="205.836046" rx="8.96713827" ry="9.01260879"></ellipse>
                    <ellipse id="Oval-1" fill="#FBFAFA" cx="182.582859" cy="54.7212702" rx="8.96713827" ry="9.01260879"></ellipse>
                    <path d="M32.4240793,31.8669395 C37.3764931,31.8669395 41.3912177,27.8318571 41.3912177,22.8543307 C41.3912177,17.8768043 37.3764931,13.8417219 32.4240793,13.8417219 L32.4240793,22.3781299 L32.4240793,31.8669395 L32.4240793,31.8669395 Z" id="Oval-1" fill-opacity="0.08" fill="#000000"></path>
                    <path d="M65.7379913,214.848654 C70.690405,214.848654 74.7051295,210.813572 74.7051295,205.836046 C74.7051295,200.858519 70.690405,196.823437 65.7379913,196.823437 L65.7379913,205.359844 L65.7379913,214.848654 L65.7379913,214.848654 Z" id="Oval-1" fill-opacity="0.08" fill="#000000"></path>
                    <path d="M182.886463,63.733879 C187.838877,63.733879 191.853601,59.6987966 191.853601,54.7212702 C191.853601,49.7437438 187.838877,45.7086614 182.886463,45.7086614 L182.886463,54.2450694 L182.886463,63.733879 L182.886463,63.733879 Z" id="Oval-1" fill-opacity="0.08" fill="#000000"></path>
                </g>
            </g>
        </g>
    </g>
</svg>