<?xml version="1.0" encoding="utf-8"?>
<!-- Generator: Adobe Illustrator 16.0.4, SVG Export Plug-In . SVG Version: 6.00 Build 0)  -->
<!DOCTYPE svg PUBLIC "-//W3C//DTD SVG 1.1//EN" "http://www.w3.org/Graphics/SVG/1.1/DTD/svg11.dtd">
<svg version="1.1" xmlns="http://www.w3.org/2000/svg" xmlns:xlink="http://www.w3.org/1999/xlink" x="0px" y="0px" width="425.2px"
	 height="283.46px" viewBox="0 0 425.2 283.46" enable-background="new 0 0 425.2 283.46" xml:space="preserve">
		<path fill="#ffffff" d="M49.025,145.827l1.7-0.7c1.4,3.2,4.3,6.2,9,6.2c5.2,0,10.301-3.7,15.601-13.101
			c8.101-14.401,14.201-37.703,14.801-54.204c3.1-1.9,6.2-3,7.8-3c0.9,0,1.6,0.4,1.6,1.9c0,0.9-0.2,4.1-0.5,7.701
			c-0.5,5.7-1.2,13.201-1.2,20.101c0,10.501,1.5,16.201,4.8,16.201c3.7,0,8.9-7.701,14.2-24.401c1.7-5.301,3.4-11.801,5.101-18.802
			c2.9-1.7,5.801-2.7,7.301-2.7c1.1,0,1.7,0.5,1.7,1.5c0,1.2-0.8,4.5-2,10.6c-3.2,16.401-6.4,35.303-6.4,46.804
			c0,6.4,1,14.2,5.1,14.2c2.501,0,5.701-3.2,8.801-11.801l2.3,0.801c-4.1,11.7-9.2,15.801-13.9,15.801
			c-7.7,0-10.7-9.601-10.7-21.002c0-9,1.399-18.501,2.899-27.201h-0.2c-4.1,11.2-10.2,21.602-17.4,21.602
			c-6.9,0-9.301-9.501-9.001-23.702h-0.2c-2,10.201-5.101,21.202-9,29.902c-5.2,11.7-12.001,19.301-20.701,19.301
			C53.726,157.827,49.826,152.827,49.025,145.827z"/>
		<path fill="#ffffff" d="M137.825,143.727v-20.001c0-7.2,5.8-13.001,13-13.001c7.201,0,13.001,5.801,13.001,13.001v10
			c0,1.7-1.3,3.001-3,3.001h-17.001v7c0,2.8,1.6,5.4,4.3,6.5c2.7,1.101,5.601,0.5,7.601-1.5c0.601-0.6,1.301-0.899,2.101-0.899
			c0.899,0,1.6,0.3,2.2,0.899c0.6,0.5,0.899,1.2,0.899,2.101c0,0.8-0.3,1.5-0.899,2.1c-3.7,3.7-9.301,4.801-14.201,2.801
			S137.825,149.027,137.825,143.727z M143.825,123.726v7h14.001v-7c0-3.9-3.101-7.001-7.001-7.001
			C146.926,116.725,143.825,119.825,143.825,123.726z"/>
		<path fill="#ffffff" d="M181.824,153.728c0,1.7-1.4,3-3,3c-1.7,0-3.001-1.3-3.001-3v-39.603c0-1.7,1.301-3,3.001-3h30.001
			c7.101,0,13.001,5.8,13.001,13v29.603c0,1.7-1.399,3-3,3c-1.7,0-3-1.3-3-3v-29.603c0-3.899-3.101-7-7.001-7h-7v36.603
			c0,1.7-1.4,3-3,3c-1.7,0-3-1.3-3-3v-36.603h-14.001V153.728z"/>
		<path fill="#ffffff" d="M233.824,143.727v-20.001c0-7.2,5.8-13.001,13-13.001c7.101,0,13.001,5.801,13.001,13.001v20.001
			c0,7.2-5.9,13.001-13.001,13.001C239.624,156.728,233.824,150.927,233.824,143.727z M239.824,123.726v20.001c0,3.9,3.101,7,7,7
			c3.9,0,7.001-3.1,7.001-7v-20.001c0-3.9-3.101-7.001-7.001-7.001C242.925,116.725,239.824,119.825,239.824,123.726z"/>
		<path fill="#ffffff" d="M272.622,153.728v-39.603c0-1.7,1.301-3,3.001-3h10c2.301,0,4.4,0.6,6.501,1.699
			c1.5,0.9,1.899,2.601,1.1,4.101s-2.6,2-4.101,1.101c-1.1-0.601-2.3-0.9-3.5-0.9h-7v36.603c0,1.7-1.3,3-3,3
			S272.622,155.428,272.622,153.728z"/>
		<path fill="#ffffff" d="M301.522,98.724c0-2.3,1.7-4,4.001-4c2.3,0,4,1.7,4,4c0,2.301-1.7,4-4,4
			C303.223,102.724,301.522,101.024,301.522,98.724z M305.523,156.728c-1.601,0-3.001-1.3-3.001-3v-40.003c0-1.7,1.4-3,3.001-3
			c1.7,0,3,1.3,3,3v40.003C308.523,155.428,307.224,156.728,305.523,156.728z"/>
		<path fill="#ffffff" d="M321.322,143.727v-20.001c0-7.2,5.8-13.001,13-13.001c7.201,0,13.001,5.801,13.001,13.001v10
			c0,1.7-1.3,3.001-3,3.001h-17.001v7c0,2.8,1.6,5.4,4.3,6.5c2.7,1.101,5.601,0.5,7.601-1.5c0.601-0.6,1.301-0.899,2.101-0.899
			c0.899,0,1.6,0.3,2.2,0.899c0.6,0.5,0.899,1.2,0.899,2.101c0,0.8-0.3,1.5-0.899,2.1c-3.7,3.7-9.301,4.801-14.201,2.801
			S321.322,149.027,321.322,143.727z M327.322,123.726v7h14.001v-7c0-3.9-3.101-7.001-7.001-7.001
			C330.423,116.725,327.322,119.825,327.322,123.726z"/>
		<path fill="#ffffff" d="M374.522,143.927c-0.1-2-1-3.601-2.7-4.801l-9.301-6.601c-3.1-2.1-4.8-5.399-5.1-9
			c-0.3-3.7,1.2-7.2,3.9-9.601c2.7-2.5,6.3-3.601,9.9-3.101c3.6,0.7,6.7,2.7,8.601,5.9c0.8,1.5,0.399,3.301-1.101,4.101
			s-3.3,0.4-4.1-1.101c-0.9-1.6-2.4-2.6-4.301-2.899s-3.601,0.2-5,1.5c-1.4,1.3-2,2.9-1.9,4.8c0.101,1.9,1,3.4,2.601,4.501l9.3,6.5
			c3.101,2.3,4.9,5.5,5.201,9.4c0.3,3.9-1.2,7.4-4.001,9.9c-2.8,2.7-6.5,3.7-10.2,3.2c-3.9-0.699-7.001-2.8-8.9-6.1
			c-0.801-1.5-0.4-3.301,1.1-4.101s3.301-0.4,4.101,1.1c1.1,1.7,2.6,2.801,4.601,3.101c1.899,0.3,3.7-0.2,5.3-1.6
			C374.022,147.627,374.723,145.927,374.522,143.927z"/>
</svg>
